<svg class="img-fluid" id="outputsvg" xmlns="http://www.w3.org/2000/svg" style="transform: matrix(1.3, 0, 0, 1.3, -13, 6.5); transform-origin: 50% 50%; cursor: move; max-height: 285.82px; transition: none 0s ease 0s;" width="512" height="512" viewBox="0 0 5120 5120"><g id="l7iJRjRaWjXiAPk5i6bZeEO" fill="rgb(255,163,26)" style="transform: none;"><g style="transform: none;"><path id="p13flyWrXT" d="M0 2560 l0 -2560 150 0 150 0 0 505 0 505 195 0 195 0 0 -335 0 -335 2215 0 2215 0 0 2220 0 2220 -2215 0 -2215 0 0 -335 0 -335 -195 0 -195 0 0 505 0 505 -150 0 -150 0 0 -2560z m2770 1136 l0 -644 303 -5 c326 -5 363 -10 517 -66 160 -59 303 -154 423 -281 123 -130 213 -292 264 -476 26 -92 28 -112 27 -279 0 -163 -3 -189 -27 -280 -112 -416 -452 -728 -877 -806 -59 -11 -232 -14 -830 -14 l-755 0 -3 1748 -2 1747 480 0 480 0 0 -644z m-2080 -1136 l0 -1260 -195 0 -195 0 0 1260 0 1260 195 0 195 0 0 -1260z"></path><path id="pjBa19IGm" d="M2120 2590 l0 -1440 563 0 c319 0 592 5 632 10 326 47 590 286 666 605 30 127 24 305 -15 420 -44 130 -100 219 -202 322 -80 79 -105 98 -195 142 -175 86 -164 84 -661 89 l-438 3 0 645 0 644 -175 0 -175 0 0 -1440z m1171 -200 c168 -31 311 -163 353 -325 70 -265 -102 -526 -370 -565 -38 -5 -234 -10 -436 -10 l-368 0 0 455 0 455 384 0 c212 0 407 -4 437 -10z"></path><path id="p1BMa5UqIT" d="M2770 1945 l0 -145 228 0 c202 0 232 3 269 20 109 49 110 198 3 252 -30 16 -66 18 -267 18 l-233 0 0 -145z"></path></g></g></svg>