<?xml version="1.0" standalone="no"?>
<!DOCTYPE svg PUBLIC "-//W3C//DTD SVG 20010904//EN"
 "http://www.w3.org/TR/2001/REC-SVG-20010904/DTD/svg10.dtd">
<svg version="1.0" xmlns="http://www.w3.org/2000/svg"
 width="512.000000pt" height="512.000000pt" viewBox="0 0 512.000000 512.000000"
 preserveAspectRatio="xMidYMid meet">

<g transform="translate(0.000000,512.000000) scale(0.100000,-0.100000)"
fill="#000000" stroke="none">
<path d="M0 2560 l0 -2560 150 0 150 0 0 505 0 505 190 0 190 0 0 -340 0 -340
2220 0 2220 0 0 2230 0 2230 -2220 0 -2220 0 0 -340 0 -340 -190 0 -190 0 0
505 0 505 -150 0 -150 0 0 -2560z m3485 1677 c180 -49 345 -141 476 -265 444
-418 463 -1112 43 -1552 -163 -171 -348 -274 -573 -320 -86 -17 -137 -20 -380
-20 l-281 0 0 -650 0 -650 -475 0 -475 0 0 1745 0 1746 783 -3 782 -3 100 -28z
m-2805 -1677 l0 -1250 -190 0 -190 0 0 1250 0 1250 190 0 190 0 0 -1250z"/>
<path d="M2120 2525 l0 -1445 175 0 175 0 0 650 0 650 423 0 c389 0 429 2 507
20 451 108 715 590 565 1031 -83 243 -269 423 -530 510 l-70 24 -622 3 -623 3
0 -1446z m1205 1079 c165 -42 295 -186 326 -359 35 -190 -74 -391 -259 -478
l-67 -32 -427 -3 -428 -3 0 446 0 445 398 0 c327 0 408 -3 457 -16z"/>
<path d="M2770 3175 l0 -145 243 0 c280 0 292 3 329 86 22 52 19 90 -11 140
-36 59 -63 64 -325 64 l-236 0 0 -145z"/>
</g>
</svg>
